<svg width="25" height="26" viewBox="0 0 25 26" fill="none" xmlns="http://www.w3.org/2000/svg">
<path fill-rule="evenodd" clip-rule="evenodd" d="M1.15639 0.966418C1.03827 1.23392 0.973022 1.56168 0.973022 1.94294V24.0589C0.973022 24.441 1.03835 24.7688 1.15661 25.0362L13.1905 13.0006L1.15639 0.966418ZM1.85161 25.7554C2.29766 25.9463 2.87953 25.8858 3.51402 25.5259L17.6711 17.4812L13.8976 13.7077L1.85161 25.7554ZM18.5736 16.9694L23.015 14.4459C24.412 13.6509 24.412 12.3519 23.015 11.5579L18.5716 9.03306L14.6047 13.0005L18.5736 16.9694ZM17.6698 8.52065L3.51402 0.476945C2.87949 0.116367 2.29759 0.0562038 1.85153 0.247342L13.8976 12.2934L17.6698 8.52065Z" fill="white"/>
</svg>
