<svg width="139" height="28" viewBox="0 0 139 28" fill="none" xmlns="http://www.w3.org/2000/svg">
<path d="M40.9369 20.7352V6.11704H43.6935V11.9226H44.0693L48.8098 6.11704H52.3391L46.2412 13.3217L52.5479 20.7352H48.9142L44.0693 14.8044H43.6935V20.7352H40.9369ZM58.7153 21.0276C57.685 21.0276 56.7592 20.8188 55.9378 20.4011C55.1164 19.9834 54.469 19.3778 53.9957 18.5843C53.5223 17.7907 53.2857 16.837 53.2857 15.7233V15.3891C53.2857 14.2754 53.5223 13.3217 53.9957 12.5282C54.469 11.7346 55.1164 11.129 55.9378 10.7113C56.7592 10.2937 57.685 10.0848 58.7153 10.0848C59.7455 10.0848 60.6713 10.2937 61.4927 10.7113C62.3141 11.129 62.9615 11.7346 63.4349 12.5282C63.9082 13.3217 64.1449 14.2754 64.1449 15.3891V15.7233C64.1449 16.837 63.9082 17.7907 63.4349 18.5843C62.9615 19.3778 62.3141 19.9834 61.4927 20.4011C60.6713 20.8188 59.7455 21.0276 58.7153 21.0276ZM58.7153 18.6887C59.5228 18.6887 60.191 18.4311 60.72 17.916C61.2491 17.387 61.5136 16.6352 61.5136 15.6606V15.4518C61.5136 14.4773 61.2491 13.7324 60.72 13.2173C60.2049 12.6883 59.5367 12.4237 58.7153 12.4237C57.9078 12.4237 57.2395 12.6883 56.7105 13.2173C56.1815 13.7324 55.9169 14.4773 55.9169 15.4518V15.6606C55.9169 16.6352 56.1815 17.387 56.7105 17.916C57.2395 18.4311 57.9078 18.6887 58.7153 18.6887ZM72.7969 21.0276C71.8641 21.0276 71.1471 20.8675 70.6459 20.5473C70.1447 20.2271 69.7758 19.8721 69.5391 19.4822H69.1632V20.7352H66.5737V6.11704H69.205V11.5675H69.5809C69.734 11.3169 69.9359 11.0803 70.1865 10.8575C70.451 10.6348 70.7921 10.4538 71.2097 10.3146C71.6413 10.1614 72.1704 10.0848 72.7969 10.0848C73.6322 10.0848 74.4049 10.2937 75.1149 10.7113C75.8249 11.1151 76.3957 11.7137 76.8273 12.5073C77.2589 13.3008 77.4747 14.2615 77.4747 15.3891V15.7233C77.4747 16.851 77.2589 17.8116 76.8273 18.6052C76.3957 19.3987 75.8249 20.0043 75.1149 20.422C74.4049 20.8257 73.6322 21.0276 72.7969 21.0276ZM72.0033 18.7304C72.8108 18.7304 73.486 18.4729 74.029 17.9578C74.5719 17.4287 74.8434 16.663 74.8434 15.6606V15.4518C74.8434 14.4494 74.5719 13.6907 74.029 13.1755C73.4999 12.6465 72.8247 12.382 72.0033 12.382C71.1958 12.382 70.5206 12.6465 69.9776 13.1755C69.4347 13.6907 69.1632 14.4494 69.1632 15.4518V15.6606C69.1632 16.663 69.4347 17.4287 69.9776 17.9578C70.5206 18.4729 71.1958 18.7304 72.0033 18.7304ZM84.8192 21.0276C83.7889 21.0276 82.8631 20.8188 82.0417 20.4011C81.2203 19.9834 80.5729 19.3778 80.0996 18.5843C79.6262 17.7907 79.3896 16.837 79.3896 15.7233V15.3891C79.3896 14.2754 79.6262 13.3217 80.0996 12.5282C80.5729 11.7346 81.2203 11.129 82.0417 10.7113C82.8631 10.2937 83.7889 10.0848 84.8192 10.0848C85.8494 10.0848 86.7752 10.2937 87.5966 10.7113C88.418 11.129 89.0654 11.7346 89.5388 12.5282C90.0121 13.3217 90.2488 14.2754 90.2488 15.3891V15.7233C90.2488 16.837 90.0121 17.7907 89.5388 18.5843C89.0654 19.3778 88.418 19.9834 87.5966 20.4011C86.7752 20.8188 85.8494 21.0276 84.8192 21.0276ZM84.8192 18.6887C85.6267 18.6887 86.2949 18.4311 86.824 17.916C87.353 17.387 87.6175 16.6352 87.6175 15.6606V15.4518C87.6175 14.4773 87.353 13.7324 86.824 13.2173C86.3088 12.6883 85.6406 12.4237 84.8192 12.4237C84.0117 12.4237 83.3434 12.6883 82.8144 13.2173C82.2854 13.7324 82.0208 14.4773 82.0208 15.4518V15.6606C82.0208 16.6352 82.2854 17.387 82.8144 17.916C83.3434 18.4311 84.0117 18.6887 84.8192 18.6887ZM96.8542 21.0276C96.0328 21.0276 95.2601 20.8257 94.5362 20.422C93.8262 20.0043 93.2554 19.3987 92.8238 18.6052C92.3922 17.8116 92.1764 16.851 92.1764 15.7233V15.3891C92.1764 14.2615 92.3922 13.3008 92.8238 12.5073C93.2554 11.7137 93.8262 11.1151 94.5362 10.7113C95.2462 10.2937 96.0189 10.0848 96.8542 10.0848C97.4807 10.0848 98.0028 10.1614 98.4205 10.3146C98.852 10.4538 99.2001 10.6348 99.4646 10.8575C99.7291 11.0803 99.931 11.3169 100.07 11.5675H100.446V6.11704H103.077V20.7352H100.488V19.4822H100.112C99.8753 19.8721 99.5064 20.2271 99.0052 20.5473C98.5179 20.8675 97.8009 21.0276 96.8542 21.0276ZM97.6478 18.7304C98.4553 18.7304 99.1305 18.4729 99.6734 17.9578C100.216 17.4287 100.488 16.663 100.488 15.6606V15.4518C100.488 14.4494 100.216 13.6907 99.6734 13.1755C99.1444 12.6465 98.4692 12.382 97.6478 12.382C96.8403 12.382 96.1651 12.6465 95.6221 13.1755C95.0792 13.6907 94.8077 14.4494 94.8077 15.4518V15.6606C94.8077 16.663 95.0792 17.4287 95.6221 17.9578C96.1651 18.4729 96.8403 18.7304 97.6478 18.7304ZM105.995 20.7352V10.3772H108.584V11.5467H108.96C109.113 11.129 109.364 10.8227 109.712 10.6278C110.074 10.4329 110.491 10.3354 110.965 10.3354H112.218V12.6743H110.923C110.255 12.6743 109.705 12.8553 109.273 13.2173C108.842 13.5654 108.626 14.1083 108.626 14.8462V20.7352H105.995ZM118.836 21.0276C117.806 21.0276 116.88 20.8188 116.058 20.4011C115.237 19.9834 114.59 19.3778 114.116 18.5843C113.643 17.7907 113.406 16.837 113.406 15.7233V15.3891C113.406 14.2754 113.643 13.3217 114.116 12.5282C114.59 11.7346 115.237 11.129 116.058 10.7113C116.88 10.2937 117.806 10.0848 118.836 10.0848C119.866 10.0848 120.792 10.2937 121.613 10.7113C122.435 11.129 123.082 11.7346 123.555 12.5282C124.029 13.3217 124.265 14.2754 124.265 15.3891V15.7233C124.265 16.837 124.029 17.7907 123.555 18.5843C123.082 19.3778 122.435 19.9834 121.613 20.4011C120.792 20.8188 119.866 21.0276 118.836 21.0276ZM118.836 18.6887C119.643 18.6887 120.312 18.4311 120.841 17.916C121.37 17.387 121.634 16.6352 121.634 15.6606V15.4518C121.634 14.4773 121.37 13.7324 120.841 13.2173C120.325 12.6883 119.657 12.4237 118.836 12.4237C118.028 12.4237 117.36 12.6883 116.831 13.2173C116.302 13.7324 116.037 14.4773 116.037 15.4518V15.6606C116.037 16.6352 116.302 17.387 116.831 17.916C117.36 18.4311 118.028 18.6887 118.836 18.6887ZM126.694 24.9119V10.3772H129.284V11.6302H129.66C129.896 11.2264 130.265 10.8714 130.766 10.5651C131.268 10.2449 131.985 10.0848 132.917 10.0848C133.753 10.0848 134.525 10.2937 135.235 10.7113C135.945 11.1151 136.516 11.7137 136.948 12.5073C137.379 13.3008 137.595 14.2615 137.595 15.3891V15.7233C137.595 16.851 137.379 17.8116 136.948 18.6052C136.516 19.3987 135.945 20.0043 135.235 20.422C134.525 20.8257 133.753 21.0276 132.917 21.0276C132.291 21.0276 131.762 20.951 131.33 20.7979C130.913 20.6587 130.572 20.4777 130.307 20.2549C130.056 20.0182 129.855 19.7816 129.701 19.5449H129.326V24.9119H126.694ZM132.124 18.7304C132.945 18.7304 133.62 18.4729 134.15 17.9578C134.692 17.4287 134.964 16.663 134.964 15.6606V15.4518C134.964 14.4494 134.692 13.6907 134.15 13.1755C133.607 12.6465 132.931 12.382 132.124 12.382C131.316 12.382 130.641 12.6465 130.098 13.1755C129.555 13.6907 129.284 14.4494 129.284 15.4518V15.6606C129.284 16.663 129.555 17.4287 130.098 17.9578C130.641 18.4729 131.316 18.7304 132.124 18.7304Z" fill="#023047"/>
<rect x="2" y="2" width="27.667" height="24" rx="6.59467" fill="#023047" stroke="#023047" stroke-width="2.74778" stroke-miterlimit="10" stroke-linecap="round" stroke-linejoin="round"/>
<path d="M31.0384 9.60333H19.9101C17.482 9.60333 15.5137 11.5717 15.5137 13.9998C15.5137 16.4279 17.482 18.3962 19.9101 18.3962H31.0384V9.60333Z" fill="#4CBFFF"/>
<circle cx="19.7627" cy="13.9998" r="2.19822" fill="white"/>
</svg>
